<svg xmlns="http://www.w3.org/2000/svg" xmlns:xlink="http://www.w3.org/1999/xlink" width="826" zoomAndPan="magnify" viewBox="0 0 619.5 743.249977" height="991" preserveAspectRatio="xMidYMid meet" version="1.0"><defs><clipPath id="7e0eb37c66"><path d="M 17.058594 43.082031 L 601.941406 43.082031 L 601.941406 721 L 17.058594 721 Z M 17.058594 43.082031 " clip-rule="nonzero"/></clipPath><clipPath id="78bb01d4fe"><path d="M 601.941406 65.558594 L 601.941406 697.535156 C 601.941406 709.949219 591.878906 720.011719 579.464844 720.011719 L 39.535156 720.011719 C 27.121094 720.011719 17.058594 709.949219 17.058594 697.535156 L 17.058594 65.558594 C 17.058594 53.144531 27.121094 43.082031 39.535156 43.082031 L 579.464844 43.082031 C 591.878906 43.082031 601.941406 53.144531 601.941406 65.558594 Z M 601.941406 65.558594 " clip-rule="nonzero"/></clipPath><clipPath id="ca48e0330b"><path d="M 0.0585938 0.0820312 L 584.941406 0.0820312 L 584.941406 677 L 0.0585938 677 Z M 0.0585938 0.0820312 " clip-rule="nonzero"/></clipPath><clipPath id="363bc4c163"><path d="M 584.941406 22.558594 L 584.941406 654.535156 C 584.941406 666.949219 574.878906 677.011719 562.464844 677.011719 L 22.535156 677.011719 C 10.121094 677.011719 0.0585938 666.949219 0.0585938 654.535156 L 0.0585938 22.558594 C 0.0585938 10.144531 10.121094 0.0820312 22.535156 0.0820312 L 562.464844 0.0820312 C 574.878906 0.0820312 584.941406 10.144531 584.941406 22.558594 Z M 584.941406 22.558594 " clip-rule="nonzero"/></clipPath><clipPath id="902cae9414"><rect x="0" width="585" y="0" height="678"/></clipPath><clipPath id="4f19f6e3c6"><path d="M 424 140.683594 L 501.863281 140.683594 L 501.863281 218 L 424 218 Z M 424 140.683594 " clip-rule="nonzero"/></clipPath><clipPath id="fb79058a3a"><path d="M 424 217 L 501.863281 217 L 501.863281 295 L 424 295 Z M 424 217 " clip-rule="nonzero"/></clipPath><clipPath id="7839dc4a0c"><path d="M 424 294 L 501.863281 294 L 501.863281 372 L 424 372 Z M 424 294 " clip-rule="nonzero"/></clipPath><clipPath id="391fd6aa2e"><path d="M 424 371 L 501.863281 371 L 501.863281 448 L 424 448 Z M 424 371 " clip-rule="nonzero"/></clipPath><clipPath id="9c66c79ac2"><path d="M 348 140.683594 L 425 140.683594 L 425 218 L 348 218 Z M 348 140.683594 " clip-rule="nonzero"/></clipPath><clipPath id="d57bb68f49"><path d="M 271 524 L 349 524 L 349 601.46875 L 271 601.46875 Z M 271 524 " clip-rule="nonzero"/></clipPath><clipPath id="30673f015a"><path d="M 117.5 217 L 195 217 L 195 295 L 117.5 295 Z M 117.5 217 " clip-rule="nonzero"/></clipPath><clipPath id="d8ef6d262a"><path d="M 117.5 294 L 195 294 L 195 372 L 117.5 372 Z M 117.5 294 " clip-rule="nonzero"/></clipPath><clipPath id="75ede40eac"><path d="M 117.5 371 L 195 371 L 195 448 L 117.5 448 Z M 117.5 371 " clip-rule="nonzero"/></clipPath><clipPath id="a420c8f4bc"><path d="M 117.5 447 L 195 447 L 195 525 L 117.5 525 Z M 117.5 447 " clip-rule="nonzero"/></clipPath><clipPath id="afc4a1cbf0"><path d="M 194 524 L 272 524 L 272 601.46875 L 194 601.46875 Z M 194 524 " clip-rule="nonzero"/></clipPath></defs><g clip-path="url(#7e0eb37c66)"><g clip-path="url(#78bb01d4fe)"><g transform="matrix(1, 0, 0, 1, 17, 43)"><g clip-path="url(#902cae9414)"><g clip-path="url(#ca48e0330b)"><g clip-path="url(#363bc4c163)"><path fill="#751a1a" d="M 0.0585938 0.0820312 L 584.941406 0.0820312 L 584.941406 676.355469 L 0.0585938 676.355469 Z M 0.0585938 0.0820312 " fill-opacity="1" fill-rule="nonzero"/></g></g></g></g></g></g><g clip-path="url(#4f19f6e3c6)"><path fill="#f3f3f3" d="M 501.863281 140.847656 L 424.988281 140.847656 L 424.988281 217.585938 L 501.863281 217.585938 Z M 501.863281 140.847656 " fill-opacity="1" fill-rule="nonzero"/></g><g clip-path="url(#fb79058a3a)"><path fill="#f3f3f3" d="M 501.863281 217.585938 L 424.988281 217.585938 L 424.988281 294.332031 L 501.863281 294.332031 Z M 501.863281 217.585938 " fill-opacity="1" fill-rule="nonzero"/></g><g clip-path="url(#7839dc4a0c)"><path fill="#f3f3f3" d="M 501.863281 294.332031 L 424.988281 294.332031 L 424.988281 371.074219 L 501.863281 371.074219 Z M 501.863281 294.332031 " fill-opacity="1" fill-rule="nonzero"/></g><g clip-path="url(#391fd6aa2e)"><path fill="#f3f3f3" d="M 424.988281 371.074219 L 501.855469 371.074219 L 424.988281 447.8125 Z M 424.988281 371.074219 " fill-opacity="1" fill-rule="nonzero"/></g><path fill="#f3f3f3" d="M 348.113281 447.8125 L 424.988281 447.8125 L 348.113281 524.554688 Z M 348.113281 447.8125 " fill-opacity="1" fill-rule="nonzero"/><path fill="#f3f3f3" d="M 463.417969 486.183594 L 386.550781 486.183594 L 463.417969 409.441406 Z M 463.417969 486.183594 " fill-opacity="1" fill-rule="nonzero"/><path fill="#f3f3f3" d="M 348.113281 447.8125 L 271.238281 447.8125 L 271.238281 524.554688 L 348.113281 524.554688 Z M 348.113281 447.8125 " fill-opacity="1" fill-rule="nonzero"/><path fill="#f3f3f3" d="M 348.113281 371.074219 L 271.238281 371.074219 L 271.238281 447.8125 L 348.113281 447.8125 Z M 348.113281 371.074219 " fill-opacity="1" fill-rule="nonzero"/><path fill="#f3f3f3" d="M 348.113281 294.332031 L 271.238281 294.332031 L 271.238281 371.074219 L 348.113281 371.074219 Z M 348.113281 294.332031 " fill-opacity="1" fill-rule="nonzero"/><path fill="#f3f3f3" d="M 348.113281 294.332031 L 271.238281 294.332031 L 348.113281 217.585938 Z M 348.113281 294.332031 " fill-opacity="1" fill-rule="nonzero"/><g clip-path="url(#9c66c79ac2)"><path fill="#f3f3f3" d="M 424.988281 217.585938 L 348.113281 217.585938 L 424.988281 140.847656 Z M 424.988281 217.585938 " fill-opacity="1" fill-rule="nonzero"/></g><path fill="#f3f3f3" d="M 308.988281 180.40625 L 385.863281 180.40625 L 308.988281 257.152344 Z M 308.988281 180.40625 " fill-opacity="1" fill-rule="nonzero"/><g clip-path="url(#d57bb68f49)"><path fill="#f3f3f3" d="M 271.238281 524.554688 L 348.113281 524.554688 L 348.113281 601.292969 L 271.238281 601.292969 Z M 271.238281 524.554688 " fill-opacity="1" fill-rule="nonzero"/></g><path fill="#f3f3f3" d="M 271.238281 447.8125 L 348.113281 447.8125 L 348.113281 524.554688 L 271.238281 524.554688 Z M 271.238281 447.8125 " fill-opacity="1" fill-rule="nonzero"/><path fill="#f3f3f3" d="M 271.238281 371.074219 L 348.113281 371.074219 L 348.113281 447.8125 L 271.238281 447.8125 Z M 271.238281 371.074219 " fill-opacity="1" fill-rule="nonzero"/><path fill="#f3f3f3" d="M 271.238281 371.074219 L 348.113281 371.074219 L 271.238281 294.332031 Z M 271.238281 371.074219 " fill-opacity="1" fill-rule="nonzero"/><path fill="#f3f3f3" d="M 194.367188 294.332031 L 271.238281 294.332031 L 194.367188 217.585938 Z M 194.367188 294.332031 " fill-opacity="1" fill-rule="nonzero"/><path fill="#f3f3f3" d="M 309.675781 255.960938 L 232.800781 255.960938 L 309.675781 332.703125 Z M 309.675781 255.960938 " fill-opacity="1" fill-rule="nonzero"/><g clip-path="url(#30673f015a)"><path fill="#f3f3f3" d="M 117.496094 217.585938 L 194.367188 217.585938 L 194.367188 294.332031 L 117.496094 294.332031 Z M 117.496094 217.585938 " fill-opacity="1" fill-rule="nonzero"/></g><g clip-path="url(#d8ef6d262a)"><path fill="#f3f3f3" d="M 117.496094 294.332031 L 194.367188 294.332031 L 194.367188 371.074219 L 117.496094 371.074219 Z M 117.496094 294.332031 " fill-opacity="1" fill-rule="nonzero"/></g><g clip-path="url(#75ede40eac)"><path fill="#f3f3f3" d="M 117.496094 371.074219 L 194.367188 371.074219 L 194.367188 447.8125 L 117.496094 447.8125 Z M 117.496094 371.074219 " fill-opacity="1" fill-rule="nonzero"/></g><g clip-path="url(#a420c8f4bc)"><path fill="#f3f3f3" d="M 194.367188 447.8125 L 117.496094 447.8125 L 194.367188 524.554688 Z M 194.367188 447.8125 " fill-opacity="1" fill-rule="nonzero"/></g><g clip-path="url(#afc4a1cbf0)"><path fill="#f3f3f3" d="M 271.238281 524.554688 L 194.367188 524.554688 L 271.238281 601.292969 Z M 271.238281 524.554688 " fill-opacity="1" fill-rule="nonzero"/></g><path fill="#f3f3f3" d="M 155.246094 561.742188 L 232.113281 561.742188 L 155.246094 484.996094 Z M 155.246094 561.742188 " fill-opacity="1" fill-rule="nonzero"/></svg>