<svg xmlns="http://www.w3.org/2000/svg" xmlns:xlink="http://www.w3.org/1999/xlink" width="826" zoomAndPan="magnify" viewBox="0 0 619.5 743.249977" height="991" preserveAspectRatio="xMidYMid meet" version="1.0"><path fill="#f3f3f3" d="M 454.75 196.949219 L 396.648438 196.949219 L 396.648438 255.046875 L 454.75 255.046875 Z M 454.75 196.949219 " fill-opacity="1" fill-rule="nonzero"/><path fill="#f3f3f3" d="M 454.75 255.046875 L 396.648438 255.046875 L 396.648438 313.148438 L 454.75 313.148438 Z M 454.75 255.046875 " fill-opacity="1" fill-rule="nonzero"/><path fill="#f3f3f3" d="M 454.75 313.148438 L 396.648438 313.148438 L 396.648438 371.25 L 454.75 371.25 Z M 454.75 313.148438 " fill-opacity="1" fill-rule="nonzero"/><path fill="#f3f3f3" d="M 396.648438 371.25 L 454.746094 371.25 L 396.648438 429.347656 Z M 396.648438 371.25 " fill-opacity="1" fill-rule="nonzero"/><path fill="#f3f3f3" d="M 338.546875 429.347656 L 396.648438 429.347656 L 338.546875 487.449219 Z M 338.546875 429.347656 " fill-opacity="1" fill-rule="nonzero"/><path fill="#f3f3f3" d="M 425.695312 458.398438 L 367.597656 458.398438 L 425.695312 400.296875 Z M 425.695312 458.398438 " fill-opacity="1" fill-rule="nonzero"/><path fill="#f3f3f3" d="M 338.546875 429.347656 L 280.445312 429.347656 L 280.445312 487.449219 L 338.546875 487.449219 Z M 338.546875 429.347656 " fill-opacity="1" fill-rule="nonzero"/><path fill="#f3f3f3" d="M 338.546875 371.25 L 280.445312 371.25 L 280.445312 429.347656 L 338.546875 429.347656 Z M 338.546875 371.25 " fill-opacity="1" fill-rule="nonzero"/><path fill="#f3f3f3" d="M 338.546875 313.148438 L 280.445312 313.148438 L 280.445312 371.25 L 338.546875 371.25 Z M 338.546875 313.148438 " fill-opacity="1" fill-rule="nonzero"/><path fill="#f3f3f3" d="M 338.546875 313.148438 L 280.445312 313.148438 L 338.546875 255.046875 Z M 338.546875 313.148438 " fill-opacity="1" fill-rule="nonzero"/><path fill="#f3f3f3" d="M 396.648438 255.046875 L 338.546875 255.046875 L 396.648438 196.949219 Z M 396.648438 255.046875 " fill-opacity="1" fill-rule="nonzero"/><path fill="#f3f3f3" d="M 308.976562 226.898438 L 367.078125 226.898438 L 308.976562 285 Z M 308.976562 226.898438 " fill-opacity="1" fill-rule="nonzero"/><path fill="#f3f3f3" d="M 338.546875 545.546875 L 280.445312 545.546875 L 280.445312 487.449219 L 338.546875 487.449219 Z M 338.546875 545.546875 " fill-opacity="1" fill-rule="nonzero"/><path fill="#f3f3f3" d="M 338.546875 487.449219 L 280.445312 487.449219 L 280.445312 429.347656 L 338.546875 429.347656 Z M 338.546875 487.449219 " fill-opacity="1" fill-rule="nonzero"/><path fill="#f3f3f3" d="M 338.546875 429.347656 L 280.445312 429.347656 L 280.445312 371.25 L 338.546875 371.25 Z M 338.546875 429.347656 " fill-opacity="1" fill-rule="nonzero"/><path fill="#f3f3f3" d="M 280.445312 371.25 L 338.546875 371.25 L 280.445312 313.148438 Z M 280.445312 371.25 " fill-opacity="1" fill-rule="nonzero"/><path fill="#f3f3f3" d="M 222.347656 313.148438 L 280.445312 313.148438 L 222.347656 255.046875 Z M 222.347656 313.148438 " fill-opacity="1" fill-rule="nonzero"/><path fill="#f3f3f3" d="M 309.496094 284.097656 L 251.394531 284.097656 L 309.496094 342.199219 Z M 309.496094 284.097656 " fill-opacity="1" fill-rule="nonzero"/><path fill="#f3f3f3" d="M 222.347656 313.148438 L 164.246094 313.148438 L 164.246094 255.046875 L 222.347656 255.046875 Z M 222.347656 313.148438 " fill-opacity="1" fill-rule="nonzero"/><path fill="#f3f3f3" d="M 222.347656 371.25 L 164.246094 371.25 L 164.246094 313.148438 L 222.347656 313.148438 Z M 222.347656 371.25 " fill-opacity="1" fill-rule="nonzero"/><path fill="#f3f3f3" d="M 222.347656 429.347656 L 164.246094 429.347656 L 164.246094 371.25 L 222.347656 371.25 Z M 222.347656 429.347656 " fill-opacity="1" fill-rule="nonzero"/><path fill="#f3f3f3" d="M 222.347656 429.347656 L 164.246094 429.347656 L 222.347656 487.449219 Z M 222.347656 429.347656 " fill-opacity="1" fill-rule="nonzero"/><path fill="#f3f3f3" d="M 280.445312 487.449219 L 222.347656 487.449219 L 280.445312 545.546875 Z M 280.445312 487.449219 " fill-opacity="1" fill-rule="nonzero"/><path fill="#f3f3f3" d="M 192.777344 515.601562 L 250.875 515.601562 L 192.777344 457.5 Z M 192.777344 515.601562 " fill-opacity="1" fill-rule="nonzero"/></svg>